<svg width="32" height="32" viewBox="0 0 242 174" xmlns="http://www.w3.org/2000/svg" preserveAspectRatio="xMidYMid meet">
  <!-- White Background -->
  <rect width="242" height="174" fill="white"/>

  <!-- InsightEsfera Logo - Centered and Optimized -->
  <g transform="translate(0, 174) scale(0.1, -0.1)" fill="#1e40af" stroke="none">
    <path d="M1061 1391 c-16 -17 -55 -45 -88 -62 -32 -17 -68 -40 -80 -51 -13 -12 -35 -23 -50 -24 -32 -4 -63 -37 -63 -68 0 -11 -15 -43 -34 -69 -19 -27 -47 -77 -62 -113 -16 -35 -34 -64 -40 -64 -36 0 -62 -99 -30 -117 9 -5 19 -40 26 -91 6 -46 20 -111 30 -145 10 -34 21 -78 25 -97 9 -45 39 -87 68 -96 12 -4 49 -31 82 -61 33 -30 80 -67 105 -81 25 -14 47 -31 49 -37 2 -5 17 -22 32 -37 21 -21 37 -28 67 -28 21 0 41 3 45 6 3 4 53 6 110 5 90 -2 114 2 188 27 47 15 108 43 135 61 26 18 61 34 77 35 30 2 57 28 57 54 0 16 58 89 115 143 35 34 40 45 41 87 1 26 4 70 7 97 l6 50 -10 -52 c-9 -43 -14 -53 -31 -53 -17 0 -19 5 -13 33 l6 32 -14 -30 c-27 -59 -38 -59 -87 -2 -29 34 -45 62 -46 81 -1 19 -11 38 -27 51 -18 14 -27 32 -30 60 l-4 40 -1 -42 c-2 -32 -7 -43 -22 -48 -15 -5 -20 -15 -20 -44 0 -51 27 -76 74 -67 31 6 37 3 70 -37 21 -26 36 -55 36 -71 0 -23 -4 -26 -35 -26 -25 0 -35 4 -35 16 0 9 -19 35 -41 58 l-41 42 -56 -7 c-42 -6 -62 -15 -85 -37 l-29 -30 -119 72 c-103 61 -119 74 -114 92 3 13 -4 32 -16 48 l-21 27 37 90 c20 50 34 93 32 96 -3 2 -21 -38 -41 -89 -31 -82 -40 -95 -67 -105 -29 -11 -36 -9 -75 18 -46 32 -56 49 -26 49 29 0 119 58 148 95 15 19 37 63 49 97 l22 61 17 -24 c9 -13 19 -23 21 -21 3 1 20 2 39 2 31 0 34 -3 40 -38 19 -119 158 -158 211 -59 31 57 53 50 58 -20 l3 -58 2 58 c2 65 21 77 42 27 7 -17 15 -29 17 -26 2 2 -3 18 -11 35 -20 38 -20 41 2 41 10 0 42 -18 72 -41 52 -39 54 -42 51 -83 -2 -36 2 -47 22 -63 14 -11 27 -30 30 -44 4 -22 5 -21 7 6 2 17 6 -1 10 -40 l6 -70 2 66 c1 45 7 71 17 79 23 19 19 86 -6 109 -45 39 -52 48 -89 112 -24 41 -37 74 -34 86 7 25 -20 53 -51 53 -13 0 -54 22 -90 50 -37 27 -75 52 -86 55 -11 4 -17 10 -14 15 3 5 0 20 -6 34 -15 32 -57 50 -90 37 -26 -10 -65 -51 -49 -51 6 0 10 -6 10 -14 0 -22 49 -56 79 -56 21 0 36 -12 69 -56 l41 -57 -24 -19 c-24 -19 -25 -18 -74 6 -37 19 -51 32 -56 54 -10 46 -49 76 -99 78 -57 2 -122 41 -144 85 -15 30 -22 34 -60 37 -37 3 -47 -1 -71 -27z m-41 -69 c-14 -9 -42 -33 -62 -54 -40 -41 -88 -60 -88 -35 0 17 46 54 105 85 48 25 81 29 45 4z m220 -4 c22 -13 40 -26 40 -29 0 -3 -11 -12 -25 -19 -13 -7 -22 -18 -18 -23 3 -6 1 -7 -6 -3 -6 4 -9 12 -6 17 4 5 3 9 -2 9 -13 1 -44 50 -38 60 8 14 11 13 55 -12z m360 -34 c75 -50 100 -74 93 -90 -7 -19 25 -54 48 -54 18 0 60 -54 92 -116 11 -22 13 -34 5 -42 -7 -7 -29 3 -74 36 -51 38 -63 52 -64 75 0 35 -49 87 -82 87 -17 0 -34 17 -64 58 -62 88 -45 106 46 46z m-711 -119 c-18 -41 -23 -46 -31 -31 -14 25 -1 66 25 75 12 5 23 8 25 6 1 -1 -7 -24 -19 -50z m-43 -32 c5 -17 3 -28 -4 -31 -7 -2 -12 -16 -12 -30 -1 -21 -17 -39 -76 -86 -41 -32 -78 -56 -81 -52 -10 9 44 126 82 179 42 56 80 65 91 20z m3 -112 c10 -7 12 -24 8 -67 -3 -33 -3 -49 0 -36 6 28 11 28 34 -2 10 -13 38 -31 62 -39 23 -8 66 -32 95 -53 40 -30 52 -45 52 -66 0 -27 43 -68 57 -54 4 3 14 -1 24 -10 16 -15 17 -14 12 7 l-6 23 34 -22 c19 -13 73 -46 120 -75 l87 -52 -1 -57 c-1 -48 -5 -58 -23 -67 -19 -8 -28 -4 -58 25 -20 19 -59 71 -87 114 -28 44 -53 80 -56 80 -5 0 -2 -6 55 -95 25 -38 60 -86 79 -106 l34 -36 -59 -22 c-32 -12 -81 -26 -108 -31 l-49 -9 55 3 c30 2 81 16 113 30 58 25 59 25 93 8 l34 -17 -31 -38 c-24 -30 -37 -37 -65 -37 -38 0 -74 -29 -74 -59 0 -15 -11 -21 -57 -29 -41 -7 -59 -7 -62 1 -2 6 -15 21 -28 34 -19 20 -32 24 -74 22 -51 -3 -52 -2 -104 57 -29 32 -52 60 -51 61 1 2 26 -6 54 -17 29 -11 69 -19 90 -19 32 1 30 2 -18 10 -30 5 -73 19 -96 30 -40 19 -42 21 -46 76 -4 49 -9 60 -42 90 l-38 35 17 99 c9 55 15 102 13 105 -4 4 -11 -29 -35 -173 -4 -26 -10 -33 -27 -33 -19 0 -29 16 -64 100 -38 94 -40 102 -27 132 8 20 10 40 5 54 -8 19 1 29 62 78 76 60 76 60 97 47z m-145 -317 l43 -100 -27 -33 -27 -32 -16 58 c-14 48 -36 174 -37 206 0 5 5 7 11 5 6 -2 30 -49 53 -104z m1056 -188 c0 -7 7 -19 15 -26 19 -16 19 -21 -1 -46 -15 -18 -15 -18 -5 3 20 40 10 39 -11 -2 -30 -58 -48 -75 -78 -75 -15 0 -33 -7 -40 -15 -17 -21 -29 -19 -107 17 -37 17 -73 32 -80 34 -6 1 -21 9 -33 17 -18 13 -19 15 -4 21 10 4 28 -5 50 -23 45 -40 90 -48 140 -24 43 20 84 74 84 109 0 21 5 24 35 24 23 0 35 -5 35 -14z m-866 -107 c-2 -4 23 -37 56 -72 41 -44 58 -70 54 -81 -3 -9 -9 -16 -14 -16 -12 0 -93 60 -137 103 l-42 40 32 16 c34 18 59 23 51 10z m656 -58 l75 -30 -38 -16 c-32 -13 -123 -35 -147 -35 -4 0 -15 10 -23 23 -14 22 -13 26 10 55 13 18 30 32 36 32 7 0 46 -13 87 -29z m44 -76 c-27 -21 -134 -73 -166 -80 l-26 -7 16 36 c11 22 24 36 37 36 11 1 49 9 85 19 72 19 83 18 54 -4z m-306 -65 c7 -11 21 -20 32 -20 11 0 20 -4 20 -10 0 -11 -120 -14 -157 -4 -36 10 -27 32 15 39 20 4 42 8 47 10 22 7 31 4 43 -15z"/>
    <path d="M842 865 c0 -16 2 -22 5 -12 2 9 2 23 0 30 -3 6 -5 -1 -5 -18z"/>
    <path d="M1103 363 c9 -2 25 -2 35 0 9 3 1 5 -18 5 -19 0 -27 -2 -17 -5z"/>
    <path d="M1211 1386 c2 -2 40 -6 84 -9 60 -4 69 -3 35 3 -46 9 -127 13 -119 6z"/>
    <path d="M1250 1056 c-15 -39 -12 -46 6 -13 9 16 13 31 10 34 -3 3 -10 -6 -16 -21z"/>
    <path d="M1701 955 c0 -5 6 -21 14 -35 8 -14 14 -20 14 -15 0 6 -6 21 -14 35 -8 14 -14 21 -14 15z"/>
    <path d="M1496 908 c36 -60 76 -118 80 -118 6 0 0 10 -54 93 -22 34 -44 54 -26 25z"/>
    <path d="M1730 885 c0 -5 5 -17 10 -25 5 -8 10 -10 10 -5 0 6 -5 17 -10 25 -5 8 -10 11 -10 5z"/>
    <path d="M1766 795 c11 -48 25 -76 18 -35 -4 19 -10 42 -15 50 -6 10 -7 5 -3 -15z"/>
    <path d="M1852 770 c0 -14 2 -19 5 -12 2 6 2 18 0 25 -3 6 -5 1 -5 -13z"/>
    <path d="M1836 714 c-4 -14 -5 -28 -3 -31 3 -2 8 8 11 23 4 14 5 28 3 31 -3 2 -8 -8 -11 -23z"/>
    <path d="M1793 670 c0 -25 2 -35 4 -22 2 12 2 32 0 45 -2 12 -4 2 -4 -23z"/>
  </g>
</svg>
